<?xml version="1.0" encoding="UTF-8" standalone="no"?>
<!-- Generator: Adobe Illustrator 19.0.0, SVG Export Plug-In . SVG Version: 6.00 Build 0)  -->

<svg
   xmlns:dc="http://purl.org/dc/elements/1.1/"
   xmlns:cc="http://creativecommons.org/ns#"
   xmlns:rdf="http://www.w3.org/1999/02/22-rdf-syntax-ns#"
   xmlns:svg="http://www.w3.org/2000/svg"
   xmlns="http://www.w3.org/2000/svg"
   xmlns:sodipodi="http://sodipodi.sourceforge.net/DTD/sodipodi-0.dtd"
   xmlns:inkscape="http://www.inkscape.org/namespaces/inkscape"
   version="1.1"
   id="Layer_1"
   x="0px"
   y="0px"
   viewBox="0 0 368.579 368.579"
   style="enable-background:new 0 0 368.579 368.579;"
   xml:space="preserve"
   inkscape:version="0.91 r13725"
   sodipodi:docname="color.svg"
   inkscape:export-filename="/Users/wojciechtopolski/Workspace/androidmvvm/app/src/main/res/mipmap-xxxhdpi/ic_launcher.png"
   inkscape:export-xdpi="46.882755"
   inkscape:export-ydpi="46.882755"><metadata
     id="metadata53"><rdf:RDF><cc:Work
         rdf:about=""><dc:format>image/svg+xml</dc:format><dc:type
           rdf:resource="http://purl.org/dc/dcmitype/StillImage" /></cc:Work></rdf:RDF></metadata><defs
     id="defs51" /><sodipodi:namedview
     pagecolor="#ffffff"
     bordercolor="#666666"
     borderopacity="1"
     objecttolerance="10"
     gridtolerance="10"
     guidetolerance="10"
     inkscape:pageopacity="0"
     inkscape:pageshadow="2"
     inkscape:window-width="1058"
     inkscape:window-height="679"
     id="namedview49"
     showgrid="false"
     inkscape:zoom="0.64029691"
     inkscape:cx="185.85128"
     inkscape:cy="184.28951"
     inkscape:window-x="0"
     inkscape:window-y="0"
     inkscape:window-maximized="0"
     inkscape:current-layer="Layer_1" /><g
     id="XMLID_2_"><g
       id="XMLID_534_"><g
         id="XMLID_783_"><g
           id="XMLID_536_"><path
             id="XMLID_782_"
             style="fill:#64B5F6;"
             d="M368.579,207.921c0,44.938-32.382,81.368-72.327,81.368      s-72.327-36.43-72.327-81.368S296.252,79.29,296.252,79.29S368.579,162.982,368.579,207.921z" /></g></g><path
         id="XMLID_787_"
         style="fill:#2196F3;"
         d="M296.252,79.29v210c39.945,0,72.327-36.43,72.327-81.368    S296.252,79.29,296.252,79.29z" /></g><g
       id="XMLID_788_"><g
         id="XMLID_792_"><g
           id="XMLID_790_"><path
             id="XMLID_791_"
             style="fill:#81C784;"
             d="M251.749,207.921c0,44.938-32.382,81.368-72.327,81.368      s-72.327-36.43-72.327-81.368S179.422,79.29,179.422,79.29S251.749,162.982,251.749,207.921z" /></g></g><path
         id="XMLID_796_"
         style="fill:#4CAF50;"
         d="M179.422,79.29v210c39.945,0,72.327-36.43,72.327-81.368    S179.422,79.29,179.422,79.29z" /></g><g
       id="XMLID_797_"><g
         id="XMLID_801_"><g
           id="XMLID_799_"><path
             id="XMLID_800_"
             style="fill:#E57373;"
             d="M144.655,207.921c0,44.938-32.382,81.368-72.327,81.368S0,252.859,0,207.921      S72.327,79.29,72.327,79.29S144.655,162.982,144.655,207.921z" /></g></g><path
         id="XMLID_805_"
         style="fill:#F44336;"
         d="M72.327,79.29v210c39.945,0,72.327-36.43,72.327-81.368S72.327,79.29,72.327,79.29    z" /></g></g><g
     id="g19" /><g
     id="g21" /><g
     id="g23" /><g
     id="g25" /><g
     id="g27" /><g
     id="g29" /><g
     id="g31" /><g
     id="g33" /><g
     id="g35" /><g
     id="g37" /><g
     id="g39" /><g
     id="g41" /><g
     id="g43" /><g
     id="g45" /><g
     id="g47" /></svg>